<?xml version="1.0" encoding="UTF-8"?>
<svg version="1.1" xmlns="http://www.w3.org/2000/svg" width="342" height="340">
<path d="M0 0 C1.44140625 1.4453125 1.44140625 1.4453125 1.44140625 3.4453125 C2.10140625 3.4453125 2.76140625 3.4453125 3.44140625 3.4453125 C3.44140625 4.1053125 3.44140625 4.7653125 3.44140625 5.4453125 C4.03953125 5.7134375 4.63765625 5.9815625 5.25390625 6.2578125 C7.43988479 7.44448656 8.85473219 8.54130363 10.44140625 10.4453125 C10.44140625 11.1053125 10.44140625 11.7653125 10.44140625 12.4453125 C11.10140625 12.4453125 11.76140625 12.4453125 12.44140625 12.4453125 C12.44140625 13.1053125 12.44140625 13.7653125 12.44140625 14.4453125 C13.10140625 14.4453125 13.76140625 14.4453125 14.44140625 14.4453125 C16.07570376 16.5398093 17.58307859 18.62313341 19.06640625 20.8203125 C19.69675781 21.72523437 19.69675781 21.72523437 20.33984375 22.6484375 C23.44140625 27.17994115 23.44140625 27.17994115 23.44140625 29.4453125 C24.20453125 29.7340625 24.96765625 30.0228125 25.75390625 30.3203125 C28.44140625 31.4453125 28.44140625 31.4453125 31.44140625 33.4453125 C31.44140625 34.1053125 31.44140625 34.7653125 31.44140625 35.4453125 C32.14265625 35.6721875 32.84390625 35.8990625 33.56640625 36.1328125 C37.1826916 37.78372538 39.52910601 39.736196 42.44140625 42.4453125 C42.44140625 43.1053125 42.44140625 43.7653125 42.44140625 44.4453125 C43.10140625 44.4453125 43.76140625 44.4453125 44.44140625 44.4453125 C46.0477464 46.17923201 47.57893495 47.9834035 49.06640625 49.8203125 C49.88367188 50.81804687 50.7009375 51.81578125 51.54296875 52.84375 C53.44140625 55.4453125 53.44140625 55.4453125 53.44140625 57.4453125 C54.10140625 57.4453125 54.76140625 57.4453125 55.44140625 57.4453125 C74.77963779 84.28613594 81.13558879 118.12930077 76.11425781 150.55810547 C72.25968297 173.23928696 63.41453936 195.43125482 50.44140625 214.4453125 C50.02761719 215.1053125 49.61382812 215.7653125 49.1875 216.4453125 C48.32805157 217.81535575 47.39475655 219.1388695 46.44140625 220.4453125 C45.78140625 220.4453125 45.12140625 220.4453125 44.44140625 220.4453125 C44.085625 221.50878906 44.085625 221.50878906 43.72265625 222.59375 C42.22487555 225.92722534 40.30325604 228.28670382 37.94140625 231.0703125 C35.62295629 233.81782625 33.436433 236.45277238 31.44140625 239.4453125 C30.78140625 239.4453125 30.12140625 239.4453125 29.44140625 239.4453125 C29.44140625 240.1053125 29.44140625 240.7653125 29.44140625 241.4453125 C27.9375 242.92578125 27.9375 242.92578125 25.87890625 244.6328125 C23.10130613 246.98159015 20.5040273 249.36683956 18.00390625 252.0078125 C14.28208881 255.79823487 10.08504622 258.86341085 5.44140625 261.4453125 C4.78140625 261.4453125 4.12140625 261.4453125 3.44140625 261.4453125 C3.44140625 262.1053125 3.44140625 262.7653125 3.44140625 263.4453125 C-0.02790007 266.06499279 -3.83464721 268.20831281 -7.55859375 270.4453125 C-8.64269531 271.10273438 -9.72679687 271.76015625 -10.84375 272.4375 C-30.02735891 283.75825198 -50.50460586 291.26862409 -72.55859375 294.4453125 C-73.6259375 294.62835938 -74.69328125 294.81140625 -75.79296875 295 C-108.70989991 298.89266613 -138.49391111 290.9617405 -165.62109375 272.5078125 C-166.66668457 271.79902954 -166.66668457 271.79902954 -167.73339844 271.07592773 C-169.38260107 269.92194656 -170.97711385 268.69048847 -172.55859375 267.4453125 C-172.55859375 266.7853125 -172.55859375 266.1253125 -172.55859375 265.4453125 C-173.14253906 265.18363281 -173.72648437 264.92195313 -174.328125 264.65234375 C-180.89830613 261.09685169 -185.37474501 254.58683181 -189.55859375 248.5703125 C-189.95651123 247.99885498 -190.35442871 247.42739746 -190.7644043 246.83862305 C-193.55859375 242.70928814 -193.55859375 242.70928814 -193.55859375 240.4453125 C-194.27917969 240.19523437 -194.99976563 239.94515625 -195.7421875 239.6875 C-216.81953351 230.3912503 -231.14089823 206.20183418 -239.30859375 185.8828125 C-251.93788617 151.26919625 -249.19447466 114.07927655 -234.55859375 80.4453125 C-234.28740723 79.81915039 -234.0162207 79.19298828 -233.73681641 78.54785156 C-227.06962817 63.52070948 -217.80868155 48.46171063 -206.55859375 36.4453125 C-205.89859375 36.4453125 -205.23859375 36.4453125 -204.55859375 36.4453125 C-204.15568115 35.55453003 -204.15568115 35.55453003 -203.74462891 34.64575195 C-202.55327143 32.43543805 -201.35647477 30.99884067 -199.58203125 29.23828125 C-198.99784424 28.6551416 -198.41365723 28.07200195 -197.81176758 27.47119141 C-196.88207153 26.56119385 -196.88207153 26.56119385 -195.93359375 25.6328125 C-195.29768311 25.00552246 -194.66177246 24.37823242 -194.0065918 23.73193359 C-182.60307743 12.54528249 -170.24411257 3.63121301 -156.55859375 -4.5546875 C-155.26888672 -5.35519531 -155.26888672 -5.35519531 -153.953125 -6.171875 C-151.70335585 -7.47108916 -149.54609021 -8.44678157 -147.12109375 -9.3671875 C-144.18442313 -10.50033581 -141.29882939 -11.67208413 -138.4296875 -12.96875 C-94.66242025 -32.74770044 -38.52280415 -30.506088 0 0 Z M-80.55859375 73.4453125 C-82.27949219 74.02345703 -82.27949219 74.02345703 -84.03515625 74.61328125 C-96.27204009 79.04091252 -106.38409764 85.39355299 -116.55859375 93.4453125 C-117.21730469 93.94804688 -117.87601563 94.45078125 -118.5546875 94.96875 C-127.13378518 101.82410288 -138.98140988 114.28673664 -140.55859375 125.4453125 C-141.21859375 125.4453125 -141.87859375 125.4453125 -142.55859375 125.4453125 C-143.68978279 128.27630967 -144.81363943 131.10987259 -145.93359375 133.9453125 C-146.25070313 134.73679687 -146.5678125 135.52828125 -146.89453125 136.34375 C-153.03399493 151.9482202 -154.78256262 169.06515415 -150.55859375 185.4453125 C-150.336875 186.35667969 -150.11515625 187.26804687 -149.88671875 188.20703125 C-148.73731214 191.92091582 -147.76222225 194.58955351 -144.53125 196.88671875 C-126.29397637 204.89693132 -103.65489758 202.36448749 -85.55859375 195.4453125 C-73.55155784 190.25357195 -58.86621507 183.38070707 -50.62109375 173.0078125 C-48.23103384 170.03834413 -45.48262587 167.88200594 -42.55859375 165.4453125 C-39.51592871 162.37150077 -39.51592871 162.37150077 -38.55859375 158.4453125 C-37.89859375 158.4453125 -37.23859375 158.4453125 -36.55859375 158.4453125 C-35.03611792 156.24381246 -33.65711024 154.06364717 -32.30859375 151.7578125 C-31.90817871 151.07879883 -31.50776367 150.39978516 -31.09521484 149.70019531 C-19.41024456 129.57634042 -13.64161049 106.77636782 -18.94921875 83.609375 C-20.40834197 78.0906726 -20.40834197 78.0906726 -24.4375 74.26953125 C-41.45067665 66.13279459 -63.09736146 67.52853732 -80.55859375 73.4453125 Z " fill="#5275BA" transform="translate(255.55859375,31.5546875)"/>
<path d="M0 0 C2.9719385 1.12451727 5.33440687 2.22293791 8 4 C8 4.66 8 5.32 8 6 C8.70125 6.226875 9.4025 6.45375 10.125 6.6875 C13.74128535 8.33841288 16.08769976 10.2908835 19 13 C19 13.66 19 14.32 19 15 C19.66 15 20.32 15 21 15 C22.60634015 16.73391951 24.1375287 18.538091 25.625 20.375 C26.44226563 21.37273437 27.25953125 22.37046875 28.1015625 23.3984375 C30 26 30 26 30 28 C30.66 28 31.32 28 32 28 C51.33823154 54.84082344 57.69418254 88.68398827 52.67285156 121.11279297 C48.81827672 143.79397446 39.97313311 165.98594232 27 185 C26.37931641 185.99 26.37931641 185.99 25.74609375 187 C24.88664532 188.37004325 23.9533503 189.693557 23 191 C22.34 191 21.68 191 21 191 C20.64421875 192.06347656 20.64421875 192.06347656 20.28125 193.1484375 C18.7834693 196.48191284 16.86184979 198.84139132 14.5 201.625 C12.18155004 204.37251375 9.99502675 207.00745988 8 210 C7.34 210 6.68 210 6 210 C6 210.66 6 211.32 6 212 C4.49609375 213.48046875 4.49609375 213.48046875 2.4375 215.1875 C-0.34010012 217.53627765 -2.93737895 219.92152706 -5.4375 222.5625 C-9.15931744 226.35292237 -13.35636003 229.41809835 -18 232 C-18.66 232 -19.32 232 -20 232 C-20 232.66 -20 233.32 -20 234 C-23.46930632 236.61968029 -27.27605346 238.76300031 -31 241 C-32.08410156 241.65742188 -33.16820312 242.31484375 -34.28515625 242.9921875 C-53.46876516 254.31293948 -73.94601211 261.82331159 -96 265 C-97.04800781 265.185625 -98.09601563 265.37125 -99.17578125 265.5625 C-104.78419608 266.20411641 -110.35963872 266.18433836 -116 266.1875 C-117.14984375 266.19974609 -118.2996875 266.21199219 -119.484375 266.22460938 C-127.95487946 266.23924734 -133.98498532 265.10402969 -141.6875 261.5 C-142.59886719 261.0771875 -143.51023438 260.654375 -144.44921875 260.21875 C-146.64561213 259.16932468 -148.82794458 258.09874466 -151 257 C-150.67 256.01 -150.34 255.02 -150 254 C-150.69867188 254.08378906 -151.39734375 254.16757812 -152.1171875 254.25390625 C-153.48230469 254.40666016 -153.48230469 254.40666016 -154.875 254.5625 C-155.77992188 254.66691406 -156.68484375 254.77132812 -157.6171875 254.87890625 C-160 255 -160 255 -162 254 C-164.32914823 253.63858045 -166.66253478 253.30300475 -169 253 C-169.99 250.525 -169.99 250.525 -171 248 C-171.85851562 248.34804688 -171.85851562 248.34804688 -172.734375 248.703125 C-175 249 -175 249 -177.140625 247.671875 C-177.83671875 247.03765625 -178.5328125 246.4034375 -179.25 245.75 C-180.30960938 244.81414062 -180.30960938 244.81414062 -181.390625 243.859375 C-183 242 -183 242 -183 239 C-183.99 238.67 -184.98 238.34 -186 238 C-188 235 -188 235 -187.6875 232.5 C-187.17901328 230.65095738 -186.60642538 228.81927613 -186 227 C-182.50750599 226.1268765 -180.43385727 226.13351265 -177 227 C-175.6048194 227.04268239 -174.20774092 227.04066276 -172.8125 227 C-169.73213322 226.95993019 -166.80303602 227.09517754 -163.75 227.5 C-125.89908489 231.99520334 -83.99667013 217.3092619 -54.00488281 194.48144531 C-50.39489261 191.56789242 -46.92972713 188.50673273 -43.50927734 185.37402344 C-42.12641124 184.1150829 -40.71486796 182.88783074 -39.30078125 181.6640625 C-19.72683885 164.64057099 4.70524669 135.14904416 8.34375 108.48046875 C8.44879986 106.93886201 8.55295184 105.39719385 8.65625 103.85546875 C8.82640625 102.93701172 8.82640625 102.93701172 9 102 C9.66 101.67 10.32 101.34 11 101 C11.79424712 98.53633534 12.4588768 96.13588889 13.0625 93.625 C13.23587891 92.95855469 13.40925781 92.29210937 13.58789062 91.60546875 C16.40960056 80.16727294 16.12951802 68.5103064 16.0625 56.8125 C16.05747197 55.27278792 16.05291138 53.73307425 16.04882812 52.19335938 C16.03793264 48.46220572 16.02074082 44.73111346 16 41 C15.34 41 14.68 41 14 41 C14 39.02 14 37.04 14 35 C13.34 35 12.68 35 12 35 C11.91363281 34.45214844 11.82726562 33.90429688 11.73828125 33.33984375 C10.51423452 26.43352502 8.42719122 20.02148227 6.12109375 13.41796875 C5.19637858 10.59871519 4.49480998 7.91882289 4 5 C3.34 5 2.68 5 2 5 C1.01 2.525 1.01 2.525 0 0 Z " fill="#D2869A" transform="translate(279,61)"/>
<path d="M0 0 C0.62729004 0.2578125 1.25458008 0.515625 1.90087891 0.78125 C16.56632516 6.89214731 28.82752558 16.52581739 36 31 C37.20411441 33.9907246 38.13253407 36.88732812 39 40 C38.38253906 39.73445313 37.76507813 39.46890625 37.12890625 39.1953125 C36.28199219 38.84210938 35.43507812 38.48890625 34.5625 38.125 C33.73878906 37.77695313 32.91507813 37.42890625 32.06640625 37.0703125 C15.52415716 31.29633001 -3.57262425 32.43354928 -20 38 C-21.72089844 38.57814453 -21.72089844 38.57814453 -23.4765625 39.16796875 C-36.5560303 43.9004694 -48.91447948 50.7825142 -58.7265625 60.77734375 C-61 63 -61 63 -63 63 C-63.37898438 63.86238281 -63.37898438 63.86238281 -63.765625 64.7421875 C-65.14814594 67.27097581 -66.76440624 69.03935694 -68.75 71.125 C-73.54044597 76.39536314 -77.73153017 82.19459051 -80 89 C-80.66 89 -81.32 89 -82 89 C-82.11472656 89.69480469 -82.22945312 90.38960938 -82.34765625 91.10546875 C-83.07746676 94.34372976 -84.19542255 97.23494904 -85.4375 100.3125 C-92.45500496 118.29106459 -93.26801549 137.82335559 -86.86328125 156.18359375 C-85.72694495 158.57452758 -84.33799275 159.79069341 -82 161 C-84.31 161 -86.62 161 -89 161 C-89 160.01 -89 159.02 -89 158 C-89.66 157.938125 -90.32 157.87625 -91 157.8125 C-97.52494752 156.04532671 -102.46907489 151.89829742 -107 147 C-107.845625 146.175 -108.69125 145.35 -109.5625 144.5 C-125.0879296 128.57648246 -128.49324834 110.52860386 -128.28125 89.1796875 C-127.9512989 76.54585987 -125.02050449 65.1689582 -119 54 C-118.48566406 53.03835937 -117.97132812 52.07671875 -117.44140625 51.0859375 C-111.98100542 41.32531338 -105.83115726 31.76685488 -97.05078125 24.69140625 C-94.94342792 23.01044327 -94.94342792 23.01044327 -92.98046875 20.96484375 C-81.39276173 9.45831156 -65.62914782 2.1980618 -50 -2 C-48.82179688 -2.36222656 -47.64359375 -2.72445312 -46.4296875 -3.09765625 C-32.25871506 -6.56737062 -13.40878131 -5.86321866 0 0 Z " fill="#7EC2D3" transform="translate(195,68)"/>
<path d="M0 0 C3.45951061 1.32352489 6.78321453 2.8417198 10.11303711 4.4621582 C20.06515683 9.27662005 30.24366316 12.46909721 41 15 C40.34 15.66 39.68 16.32 39 17 C38.360625 16.835 37.72125 16.67 37.0625 16.5 C36.381875 16.335 35.70125 16.17 35 16 C31.83333333 17.83333333 31.83333333 17.83333333 30 21 C30.316449 24.37545601 31.62418362 25.72317597 34 28 C34.495 29.485 34.495 29.485 35 31 C36.48623122 32.66155698 36.48623122 32.66155698 38.3125 34.1875 C38.90675781 34.71730469 39.50101563 35.24710937 40.11328125 35.79296875 C42.18828028 37.35927015 42.18828028 37.35927015 46 37 C46.22429687 37.64453125 46.44859375 38.2890625 46.6796875 38.953125 C47.82889456 41.24388852 47.82889456 41.24388852 50.3828125 41.609375 C51.28773437 41.65578125 52.19265625 41.7021875 53.125 41.75 C54.49011719 41.83507812 54.49011719 41.83507812 55.8828125 41.921875 C56.58148438 41.94765625 57.28015625 41.9734375 58 42 C58 42.33 58 42.66 58 43 C59.65 43.33 61.3 43.66 63 44 C63.495 43.01 63.495 43.01 64 42 C65.485 42.495 65.485 42.495 67 43 C67 43.99 67 44.98 67 46 C69.31 46.66 71.62 47.32 74 48 C74 48.66 74 49.32 74 50 C75.175625 50.185625 75.175625 50.185625 76.375 50.375 C79 51 79 51 81 53 C61.02521391 52.04881971 44.15653798 43.05667389 27.9375 32.0625 C27.24003662 31.58989746 26.54257324 31.11729492 25.82397461 30.63037109 C24.17532434 29.47625307 22.581186 28.24494456 21 27 C21 26.34 21 25.68 21 25 C20.41605469 24.73832031 19.83210938 24.47664063 19.23046875 24.20703125 C12.66028762 20.65153919 8.18384874 14.14151931 4 8.125 C3.60208252 7.55354248 3.20416504 6.98208496 2.79418945 6.39331055 C0 2.26397564 0 2.26397564 0 0 Z " fill="#7FC0EE" transform="translate(62,272)"/>
<path d="M0 0 C2.9719385 1.12451727 5.33440687 2.22293791 8 4 C8 4.66 8 5.32 8 6 C8.70125 6.226875 9.4025 6.45375 10.125 6.6875 C13.74128535 8.33841288 16.08769976 10.2908835 19 13 C19 13.66 19 14.32 19 15 C19.66 15 20.32 15 21 15 C22.60178593 16.78104718 24.13381926 18.62537278 25.625 20.5 C26.44226563 21.5209375 27.25953125 22.541875 28.1015625 23.59375 C28.72804688 24.3878125 29.35453125 25.181875 30 26 C29.67 26.66 29.34 27.32 29 28 C27 26.625 27 26.625 25 25 C25 24.34 25 23.68 25 23 C24.34 23 23.68 23 23 23 C23 24.32 23 25.64 23 27 C23.66 27.33 24.32 27.66 25 28 C21.846632 28.70074844 19.27275026 29 16 29 C15.67 30.98 15.34 32.96 15 35 C14.01 35 13.02 35 12 35 C11.91363281 34.45214844 11.82726562 33.90429688 11.73828125 33.33984375 C10.51423452 26.43352502 8.42719122 20.02148227 6.12109375 13.41796875 C5.19637858 10.59871519 4.49480998 7.91882289 4 5 C3.34 5 2.68 5 2 5 C1.34 3.35 0.68 1.7 0 0 Z " fill="#E57480" transform="translate(279,61)"/>
<path d="M0 0 C-1.32 0.33 -2.64 0.66 -4 1 C-4 1.99 -4 2.98 -4 4 C-4.78375 4.28875 -5.5675 4.5775 -6.375 4.875 C-9.09671632 5.84912254 -9.09671632 5.84912254 -11 8 C-14.31549463 11.18287485 -17.68477066 11.71833211 -22.07421875 12.47265625 C-22.70972656 12.64667969 -23.34523438 12.82070313 -24 13 C-24.33 13.66 -24.66 14.32 -25 15 C-26.0828125 14.5978125 -26.0828125 14.5978125 -27.1875 14.1875 C-30.26390537 13.65105845 -30.26390537 13.65105845 -32.8125 16.4375 C-33.8953125 17.7059375 -33.8953125 17.7059375 -35 19 C-35 18.01 -35 17.02 -35 16 C-38.0745356 16.7763932 -38.0745356 16.7763932 -40 19 C-42.475 18.01 -42.475 18.01 -45 17 C-45 17.66 -45 18.32 -45 19 C-49.7415405 19.65400559 -54.21134763 20 -59 20 C-61.92635734 20.41805105 -64.79477498 20.95704593 -67.6875 21.5625 C-73.27171249 22.61897263 -79.19241882 21.53001118 -84.8125 21.0625 C-85.89337891 20.97548828 -86.97425781 20.88847656 -88.08789062 20.79882812 C-89.13783203 20.71181641 -90.18777344 20.62480469 -91.26953125 20.53515625 C-92.22448486 20.456604 -93.17943848 20.37805176 -94.16333008 20.29711914 C-97.13605402 19.9857494 -100.05716068 19.51970852 -103 19 C-103 18.67 -103 18.34 -103 18 C-101.92363281 18.0721875 -100.84726563 18.144375 -99.73828125 18.21875 C-66.69574323 20.36021989 -35.20058649 16.16165275 -5.79296875 0.22265625 C-3 -1 -3 -1 0 0 Z " fill="#B6A2C3" transform="translate(206,270)"/>
<path d="M0 0 C2.33512959 0.32050798 4.66822025 0.65596692 7 1 C7.928125 1.103125 8.85625 1.20625 9.8125 1.3125 C10.8953125 1.6528125 10.8953125 1.6528125 12 2 C12.26941406 2.65871094 12.53882812 3.31742187 12.81640625 3.99609375 C13.20699219 4.65738281 13.59757812 5.31867188 14 6 C16.41679707 6.70176588 16.41679707 6.70176588 19.125 6.75 C20.03507812 6.80671875 20.94515625 6.8634375 21.8828125 6.921875 C22.58148438 6.94765625 23.28015625 6.9734375 24 7 C24 7.33 24 7.66 24 8 C26.475 8.495 26.475 8.495 29 9 C29.33 8.34 29.66 7.68 30 7 C30.99 7.33 31.98 7.66 33 8 C33 8.99 33 9.98 33 11 C35.31 11.66 37.62 12.32 40 13 C40 13.66 40 14.32 40 15 C40.78375 15.12375 41.5675 15.2475 42.375 15.375 C45 16 45 16 47 18 C31.54499425 17.26404735 10.97305064 11.68098939 0 0 Z " fill="#C2D4EA" transform="translate(96,307)"/>
<path d="M0 0 C0.66 0.33 1.32 0.66 2 1 C1.54625 1.391875 1.0925 1.78375 0.625 2.1875 C-1.14889105 3.95743841 -1.14889105 3.95743841 -2 6.5 C-3.01547262 9.03868156 -3.8735612 10.31656928 -6 12 C-6.66 12 -7.32 12 -8 12 C-8 12.66 -8 13.32 -8 14 C-9.98 14.33 -11.96 14.66 -14 15 C-14 15.66 -14 16.32 -14 17 C-16.97 17.495 -16.97 17.495 -20 18 C-20.495 19.485 -20.495 19.485 -21 21 C-22.671875 22.09765625 -22.671875 22.09765625 -24.75 23.0625 C-25.83667969 23.57490234 -25.83667969 23.57490234 -26.9453125 24.09765625 C-28.48704768 24.77473006 -30.05145575 25.40055457 -31.625 26 C-34.17069711 26.94345298 -34.17069711 26.94345298 -36.5625 29.0625 C-42.77987175 32.5668368 -50.12775063 32.65186177 -57 31 C-57 30.67 -57 30.34 -57 30 C-55.74509766 29.77957031 -55.74509766 29.77957031 -54.46484375 29.5546875 C-34.86594155 25.77815485 -12.04783906 16.61770904 0 0 Z " fill="#A0B1D5" transform="translate(207,201)"/>
<path d="M0 0 C0.495 0.99 0.495 0.99 1 2 C0.0625 4.625 0.0625 4.625 -1 7 C-1.66 7 -2.32 7 -3 7 C-3 8.32 -3 9.64 -3 11 C-3.99 11.33 -4.98 11.66 -6 12 C-10.86224188 14.16664753 -14.87490995 16.61531073 -19 20 C-20.24074603 20.70406359 -21.49131566 21.39103148 -22.75 22.0625 C-26.25328616 23.67162578 -26.25328616 23.67162578 -27 27 C-30.77977668 29.31940842 -33.56084956 30.39168975 -38 30 C-38 29.34 -38 28.68 -38 28 C-37.01 27.67 -36.02 27.34 -35 27 C-35 26.34 -35 25.68 -35 25 C-33.56982422 23.95361328 -33.56982422 23.95361328 -31.5546875 22.8203125 C-30.81355713 22.39161865 -30.07242676 21.9629248 -29.30883789 21.52124023 C-28.50567139 21.06048096 -27.70250488 20.59972168 -26.875 20.125 C-19.1255631 15.5590407 -12.38632127 10.45336771 -5.72265625 4.43359375 C-3 2 -3 2 0 0 Z " fill="#BCA0C1" transform="translate(240,243)"/>
<path d="M0 0 C0.66 0.33 1.32 0.66 2 1 C3.11206703 6.74462056 2.92010298 11.74713531 2.0625 17.5 C1.91264648 18.59054688 1.91264648 18.59054688 1.75976562 19.703125 C1.51565275 21.47003721 1.25914703 23.23523014 1 25 C1.66 25 2.32 25 3 25 C2.87431641 26.13888672 2.87431641 26.13888672 2.74609375 27.30078125 C2.64425781 28.29464844 2.54242188 29.28851563 2.4375 30.3125 C2.33308594 31.29863281 2.22867187 32.28476563 2.12109375 33.30078125 C1.83397473 36.09930347 1.83397473 36.09930347 3 39 C2.67 39.7425 2.34 40.485 2 41.25 C0.70634523 44.80755061 1.28161077 47.33621494 2 51 C1.34 51 0.68 51 0 51 C-0.66 53.31 -1.32 55.62 -2 58 C-2.33 58 -2.66 58 -3 58 C-2.76195425 50.7328596 -2.5189296 43.46590383 -2.26950932 36.19914436 C-2.15385653 32.82505943 -2.03993351 29.45093442 -1.92993164 26.07666016 C-1.80267962 22.19938337 -1.66951429 18.32234872 -1.53515625 14.4453125 C-1.49656998 13.23070343 -1.4579837 12.01609436 -1.41822815 10.76467896 C-1.37826218 9.64366791 -1.3382962 8.52265686 -1.29711914 7.36767578 C-1.26380997 6.37728302 -1.23050079 5.38689026 -1.19618225 4.3664856 C-1 2 -1 2 0 0 Z " fill="#CD7790" transform="translate(297,98)"/>
<path d="M0 0 C4.36778087 1.67926332 8.58165008 3.63305917 12.8125 5.625 C13.50537109 5.94984375 14.19824219 6.2746875 14.91210938 6.609375 C16.60866023 7.40499885 18.30441165 8.20232699 20 9 C19.01 9.495 19.01 9.495 18 10 C18 10.99 18 11.98 18 13 C17.01 13.495 17.01 13.495 16 14 C17.07710178 18.30840713 18.03947516 21.63576723 21 25 C13.45221007 21.61765705 8.6051037 14.74729852 4 8.125 C3.60208252 7.55354248 3.20416504 6.98208496 2.79418945 6.39331055 C0 2.26397564 0 2.26397564 0 0 Z " fill="#8BCBF3" transform="translate(62,272)"/>
<path d="M0 0 C5.94963168 -0.22758154 11.91515493 0.79031081 17.39453125 3.16796875 C17.88953125 4.65296875 17.88953125 4.65296875 18.39453125 6.16796875 C17.5128125 5.95140625 17.5128125 5.95140625 16.61328125 5.73046875 C2.71924134 2.8558398 -13.87794263 1.9881303 -27.43359375 6.609375 C-29.88436229 7.23969856 -31.24103902 6.98684235 -33.60546875 6.16796875 C-32.61546875 5.83796875 -31.62546875 5.50796875 -30.60546875 5.16796875 C-30.27546875 4.50796875 -29.94546875 3.84796875 -29.60546875 3.16796875 C-27.390625 2.7890625 -27.390625 2.7890625 -24.66796875 2.60546875 C-20.99871754 2.39995552 -20.99871754 2.39995552 -17.60546875 1.16796875 C-11.74977013 0.58167507 -5.87115775 0.37850042 0 0 Z " fill="#B6D4E6" transform="translate(208.60546875,97.83203125)"/>
<path d="M0 0 C2.82119473 0.34646251 3.84340331 0.82691945 5.78125 2.96875 C13.2184225 13.92167678 13.2184225 13.92167678 15 20 C14.67 20.66 14.34 21.32 14 22 C11.0625 20.75 11.0625 20.75 8 19 C7.125 16.8125 7.125 16.8125 7 15 C5.35 15 3.7 15 2 15 C1.67 14.34 1.34 13.68 1 13 C1.9375 10.875 1.9375 10.875 3 9 C3.99 9 4.98 9 6 9 C5.67 8.34 5.34 7.68 5 7 C4.01 6.67 3.02 6.34 2 6 C2.33 5.34 2.66 4.68 3 4 C2.01 3.34 1.02 2.68 0 2 C0 1.34 0 0.68 0 0 Z " fill="#91BDE4" transform="translate(219,86)"/>
<path d="M0 0 C-0.33 0.66 -0.66 1.32 -1 2 C-2.32 2 -3.64 2 -5 2 C-5 2.66 -5 3.32 -5 4 C-9.7415405 4.65400559 -14.21134763 5 -19 5 C-21.92635734 5.41805105 -24.79477498 5.95704593 -27.6875 6.5625 C-33.27171249 7.61897263 -39.19241882 6.53001118 -44.8125 6.0625 C-45.89337891 5.97548828 -46.97425781 5.88847656 -48.08789062 5.79882812 C-49.13783203 5.71181641 -50.18777344 5.62480469 -51.26953125 5.53515625 C-52.22448486 5.456604 -53.17943848 5.37805176 -54.16333008 5.29711914 C-57.13605402 4.9857494 -60.05716068 4.51970852 -63 4 C-63 3.67 -63 3.34 -63 3 C-61.92363281 3.0721875 -60.84726563 3.144375 -59.73828125 3.21875 C-41.99045504 4.36897748 -24.46375283 4.49232763 -7.04296875 0.3671875 C-4.66563237 -0.06009667 -2.41033479 -0.05889125 0 0 Z " fill="#A8BCE5" transform="translate(166,285)"/>
<path d="M0 0 C-2.30228918 2.30228918 -3.86495147 2.74491956 -6.9375 3.75 C-15.96640395 6.92902508 -23.97394025 11.85120695 -32 17 C-32 15.68 -32 14.36 -32 13 C-30.68 12.34 -29.36 11.68 -28 11 C-28 10.34 -28 9.68 -28 9 C-24.52546586 6.54738766 -21.01515181 5.30928863 -17 4 C-16.01 3.34 -15.02 2.68 -14 2 C-9.12288449 -0.04158324 -5.19710162 -0.1792104 0 0 Z " fill="#AFD3DF" transform="translate(175,105)"/>
<path d="M0 0 C0 3.86695678 -1.41909971 6.5088452 -3 10 C-3.66 10 -4.32 10 -5 10 C-5.11472656 10.69480469 -5.22945312 11.38960937 -5.34765625 12.10546875 C-6.07746676 15.34372976 -7.19542255 18.23494904 -8.4375 21.3125 C-10.35290097 26.18404004 -11.89739783 30.88793539 -13 36 C-13.33 36 -13.66 36 -14 36 C-14.09322847 24.75931054 -13.51775313 16.01088655 -6 7 C-5.34 7 -4.68 7 -4 7 C-4 5.35 -4 3.7 -4 2 C-2.68 1.34 -1.36 0.68 0 0 Z " fill="#B4DAE0" transform="translate(118,147)"/>
<path d="M0 0 C0 0.33 0 0.66 0 1 C-8.53495014 2.12824155 -17.03453548 2.11663729 -25.625 2.0625 C-27.02473797 2.05747197 -28.4244777 2.05291138 -29.82421875 2.04882812 C-33.21619169 2.03713167 -36.60807233 2.02074086 -40 2 C-40 2.66 -40 3.32 -40 4 C-41.58129029 4.22331199 -43.16521089 4.42804644 -44.75 4.625 C-46.07257813 4.79902344 -46.07257813 4.79902344 -47.421875 4.9765625 C-50.22859878 5.00207817 -51.63384866 4.44843844 -54 3 C-35.81452325 -1.2088658 -18.57677733 -1.14306667 0 0 Z " fill="#98AACB" transform="translate(197,7)"/>
<path d="M0 0 C0.33 0 0.66 0 1 0 C2.03527769 6.79503691 2.14968447 13.44610229 2.125 20.3125 C2.12886719 21.37662109 2.13273437 22.44074219 2.13671875 23.53710938 C2.12484257 33.2696383 1.65839862 42.60699153 -1 52 C-1.33 52 -1.66 52 -2 52 C-2.02688151 50.35425434 -2.04634123 48.70838587 -2.0625 47.0625 C-2.07410156 46.14597656 -2.08570313 45.22945312 -2.09765625 44.28515625 C-2 42 -2 42 -1 41 C-0.8396444 37.97192956 -0.74039552 34.96414546 -0.68359375 31.93359375 C-0.66281265 31.02497086 -0.64203156 30.11634796 -0.62062073 29.18019104 C-0.55502328 26.26604054 -0.4961932 23.35179696 -0.4375 20.4375 C-0.39432446 18.46678709 -0.35071049 16.49608374 -0.30664062 14.52539062 C-0.19933157 9.68369012 -0.09809325 4.84189563 0 0 Z " fill="#786FA5" transform="translate(294,102)"/>
<path d="M0 0 C0.33 0.66 0.66 1.32 1 2 C0.0625 4.625 0.0625 4.625 -1 7 C-1.66 7 -2.32 7 -3 7 C-3 8.32 -3 9.64 -3 11 C-3.99 11.33 -4.98 11.66 -6 12 C-7.56819626 12.67440565 -9.13037099 13.3629203 -10.6875 14.0625 C-11.49574219 14.42472656 -12.30398437 14.78695313 -13.13671875 15.16015625 C-13.75160156 15.43730469 -14.36648437 15.71445312 -15 16 C-13.57867119 11.29607846 -11.15226676 8.96015026 -7.5 5.75 C-6.03046875 4.44289062 -6.03046875 4.44289062 -4.53125 3.109375 C-2 1 -2 1 0 0 Z " fill="#C593B0" transform="translate(240,243)"/>
<path d="M0 0 C2 3 2 3 1.64453125 5.26953125 C0.07802268 10.05731095 -1.55209986 14.57046641 -4 19 C-4.66 19 -5.32 19 -6 19 C-6.33 19.99 -6.66 20.98 -7 22 C-7.66 22.33 -8.32 22.66 -9 23 C-8.4163354 18.64845617 -7.34353261 14.9734478 -5.625 10.9375 C-4.99464844 9.43509766 -4.99464844 9.43509766 -4.3515625 7.90234375 C-3.06378854 5.13697945 -1.62023986 2.58196117 0 0 Z " fill="#768DC3" transform="translate(26,103)"/>
<path d="M0 0 C1.98 0 3.96 0 6 0 C7.35015859 4.05047576 6.62084998 6.7920168 6 11 C4.68 11 3.36 11 2 11 C1.67 12.98 1.34 14.96 1 17 C0.67 17 0.34 17 0 17 C-0.19551338 15.39679026 -0.38111983 13.79237014 -0.5625 12.1875 C-0.71912109 10.84751953 -0.71912109 10.84751953 -0.87890625 9.48046875 C-1 7 -1 7 0 4 C0 2.68 0 1.36 0 0 Z " fill="#E9717E" transform="translate(293,79)"/>
<path d="M0 0 C1.32 0.33 2.64 0.66 4 1 C4 1.99 4 2.98 4 4 C6.31 4.66 8.62 5.32 11 6 C11 6.66 11 7.32 11 8 C11.78375 8.12375 12.5675 8.2475 13.375 8.375 C16 9 16 9 18 11 C14.7 10.67 11.4 10.34 8 10 C8 9.34 8 8.68 8 8 C7.071875 7.855625 6.14375 7.71125 5.1875 7.5625 C2 7 2 7 -1 6 C-1 5.34 -1 4.68 -1 4 C-2.65 3.67 -4.3 3.34 -6 3 C-6 2.67 -6 2.34 -6 2 C-4.02 2 -2.04 2 0 2 C0 1.34 0 0.68 0 0 Z " fill="#B8C3DA" transform="translate(125,314)"/>
<path d="M0 0 C0.33 0 0.66 0 1 0 C0.98952637 0.6391333 0.97905273 1.2782666 0.96826172 1.93676758 C0.92611505 4.89530335 0.90049055 7.85377561 0.875 10.8125 C0.85824219 11.81732422 0.84148437 12.82214844 0.82421875 13.85742188 C0.76689741 22.7708904 1.91165129 31.17745177 4.625 39.6875 C4.88539062 40.51636719 5.14578125 41.34523437 5.4140625 42.19921875 C5.60742188 42.79347656 5.80078125 43.38773438 6 44 C5.34 44 4.68 44 4 44 C-1.63862447 36.42110777 -1.64333301 29.5052188 -1.375 20.3125 C-1.36082031 19.02021484 -1.34664063 17.72792969 -1.33203125 16.39648438 C-1.24559886 10.81583303 -1.02606088 5.49601365 0 0 Z " fill="#D1ECEF" transform="translate(103,183)"/>
<path d="M0 0 C0.66 0 1.32 0 2 0 C2 0.66 2 1.32 2 2 C2.66 2 3.32 2 4 2 C5.60178593 3.78104718 7.13381926 5.62537278 8.625 7.5 C9.44226563 8.5209375 10.25953125 9.541875 11.1015625 10.59375 C11.72804688 11.3878125 12.35453125 12.181875 13 13 C12.67 13.66 12.34 14.32 12 15 C10 13.625 10 13.625 8 12 C8 11.34 8 10.68 8 10 C7.34 10 6.68 10 6 10 C6 11.32 6 12.64 6 14 C6.66 14.33 7.32 14.66 8 15 C6.0625 15.5625 6.0625 15.5625 4 16 C3 15 3 15 2.90234375 12.71484375 C2.91394531 11.79832031 2.92554688 10.88179687 2.9375 9.9375 C2.94652344 9.01839844 2.95554687 8.09929687 2.96484375 7.15234375 C2.97644531 6.44207031 2.98804688 5.73179688 3 5 C2.34 5 1.68 5 1 5 C0.67 3.35 0.34 1.7 0 0 Z " fill="#E98D94" transform="translate(296,74)"/>
<path d="M0 0 C2.9719385 1.12451727 5.33440687 2.22293791 8 4 C8 4.66 8 5.32 8 6 C8.7425 6.226875 9.485 6.45375 10.25 6.6875 C13.51139591 8.24407532 14.92894975 10.08518854 17 13 C13.59687262 11.94124926 10.98646769 10.99097846 8 9 C7.67 9.66 7.34 10.32 7 11 C7 10.34 7 9.68 7 9 C6.01 9 5.02 9 4 9 C4 7.68 4 6.36 4 5 C3.34 5 2.68 5 2 5 C1.34 3.35 0.68 1.7 0 0 Z " fill="#E4A3AE" transform="translate(279,61)"/>
<path d="M0 0 C0.33 0 0.66 0 1 0 C3.03363724 26.22003035 3.03363724 26.22003035 -1 36 C-2.485 36.495 -2.485 36.495 -4 37 C-3.86722656 36.3709375 -3.73445312 35.741875 -3.59765625 35.09375 C-3.42105469 34.2378125 -3.24445313 33.381875 -3.0625 32.5 C-2.88847656 31.6646875 -2.71445313 30.829375 -2.53515625 29.96875 C-1.27786593 22.99400077 -0.76865772 16.06831722 -0.4375 9 C-0.39431641 8.12988281 -0.35113281 7.25976562 -0.30664062 6.36328125 C-0.20175782 4.24231781 -0.10049925 2.12117567 0 0 Z " fill="#A1B4D5" transform="translate(238,124)"/>
<path d="M0 0 C-5.93347144 5.25921332 -11.13809862 6.14995452 -19 6 C-20.6751705 5.71243667 -22.34654738 5.3936792 -24 5 C-24 4.67 -24 4.34 -24 4 C-23.0821875 3.80664062 -22.164375 3.61328125 -21.21875 3.4140625 C-13.19976611 1.72828043 -13.19976611 1.72828043 -5.25 -0.25 C-2 -1 -2 -1 0 0 Z " fill="#748BC2" transform="translate(174,227)"/>
<path d="M0 0 C4.55315948 0.61811534 8.28459767 2.46765893 12.3125 4.5625 C13.28026367 5.0565332 13.28026367 5.0565332 14.26757812 5.56054688 C15.84785228 6.36824255 17.42432105 7.18337613 19 8 C18.01 8.66 17.02 9.32 16 10 C15.67 9.01 15.34 8.02 15 7 C14.34 7 13.68 7 13 7 C13 7.66 13 8.32 13 9 C12.34 9 11.68 9 11 9 C11 8.34 11 7.68 11 7 C9.35 7.33 7.7 7.66 6 8 C5.34 6.02 4.68 4.04 4 2 C2.68 2 1.36 2 0 2 C0 1.34 0 0.68 0 0 Z " fill="#8BA0C9" transform="translate(221,14)"/>
<path d="M0 0 C0.598125 0.309375 1.19625 0.61875 1.8125 0.9375 C4.08956772 2.10209704 4.08956772 2.10209704 7 3 C7 3.99 7 4.98 7 6 C8.32 6.66 9.64 7.32 11 8 C9.68 9.32 8.36 10.64 7 12 C0.29612756 4.88610478 0.29612756 4.88610478 0 0 Z " fill="#899ECC" transform="translate(26,235)"/>
<path d="M0 0 C2 1 4 2 6 3 C6 3.66 6 4.32 6 5 C6.66 5 7.32 5 8 5 C8 5.66 8 6.32 8 7 C8.598125 7.268125 9.19625 7.53625 9.8125 7.8125 C11.97224808 8.98493467 13.35790256 10.19369282 15 12 C14.67 12.66 14.34 13.32 14 14 C13.38125 13.525625 12.7625 13.05125 12.125 12.5625 C10.09294454 10.97582559 10.09294454 10.97582559 8 10 C7.01 10.33 6.02 10.66 5 11 C4.71125 10.2575 4.4225 9.515 4.125 8.75 C3.17604174 6.43032425 2.1502482 4.22381318 1 2 C0.67 1.34 0.34 0.68 0 0 Z " fill="#96AAD3" transform="translate(251,30)"/>
<path d="M0 0 C0.33 0.66 0.66 1.32 1 2 C1.99 2.33 2.98 2.66 4 3 C6.36506843 5.00121175 6.9893322 5.96799661 8 9 C8.99 9.66 9.98 10.32 11 11 C11 11.66 11 12.32 11 13 C6.75128382 12.50750176 4.91041775 11.40926002 2.125 8.1875 C1.50882812 7.50042969 0.89265625 6.81335938 0.2578125 6.10546875 C-1 4 -1 4 -0.6953125 1.73828125 C-0.46585937 1.16464844 -0.23640625 0.59101563 0 0 Z " fill="#7CBEED" transform="translate(89,294)"/>
<path d="M0 0 C2.4164124 0.48328248 4.65832183 1.21944061 7 2 C7 3.65 7 5.3 7 7 C6.01 7.33 5.02 7.66 4 8 C4 8.99 4 9.98 4 11 C2.68 11.33 1.36 11.66 0 12 C1.875 6.25 1.875 6.25 3 4 C2.01 4 1.02 4 0 4 C-0.33 3.01 -0.66 2.02 -1 1 C-0.67 0.67 -0.34 0.34 0 0 Z " fill="#EF6C75" transform="translate(310,218)"/>
<path d="M0 0 C0.33 0 0.66 0 1 0 C1.3125 2.25 1.3125 2.25 1 5 C-0.62935241 6.37868281 -2.29749607 7.71274093 -4 9 C-4.86965506 11.12946603 -4.86965506 11.12946603 -5 13 C-5.66 12.34 -6.32 11.68 -7 11 C-8.65 12.98 -10.3 14.96 -12 17 C-12 13.03990775 -10.59219817 11.85479241 -8.125 8.8125 C-7.40570313 7.91144531 -6.68640625 7.01039062 -5.9453125 6.08203125 C-5.30335937 5.39496094 -4.66140625 4.70789063 -4 4 C-3.34 4 -2.68 4 -2 4 C-1.34 2.68 -0.68 1.36 0 0 Z " fill="#A6B5D8" transform="translate(53,64)"/>
<path d="M0 0 C0.66 0 1.32 0 2 0 C2 0.66 2 1.32 2 2 C2.66 2 3.32 2 4 2 C5.6640793 4.07197086 7.18561107 6.12814531 8.6875 8.3125 C9.33041992 9.20485352 9.33041992 9.20485352 9.98632812 10.11523438 C11.07698635 11.68711701 12.04744898 13.34078424 13 15 C12.67 15.99 12.34 16.98 12 18 C10.66104368 16.33784732 9.32869858 14.67036393 8 13 C7.4225 12.29875 6.845 11.5975 6.25 10.875 C5 9 5 9 5 6 C2.525 5.01 2.525 5.01 0 4 C0 2.66666667 0 1.33333333 0 0 Z " fill="#90A4C7" transform="translate(266,44)"/>
<path d="M0 0 C0.33 0.66 0.66 1.32 1 2 C-0.109375 4.49609375 -0.109375 4.49609375 -1.75 7.4375 C-2.28109375 8.40558594 -2.8121875 9.37367188 -3.359375 10.37109375 C-4.75899764 12.61382241 -6.03853093 14.25712839 -8 16 C-8.33 14.02 -8.66 12.04 -9 10 C-8.01 10 -7.02 10 -6 10 C-6.33 8.35 -6.66 6.7 -7 5 C-5.35 4.67 -3.7 4.34 -2 4 C-2 3.01 -2 2.02 -2 1 C-1.34 0.67 -0.68 0.34 0 0 Z " fill="#ED9CA3" transform="translate(316,225)"/>
<path d="M0 0 C0.66 0.33 1.32 0.66 2 1 C1.649375 2.010625 1.29875 3.02125 0.9375 4.0625 C-0.1892448 7.92337378 0.19468283 11.05394586 1 15 C0.34 15 -0.32 15 -1 15 C-1.66 17.31 -2.32 19.62 -3 22 C-3.33 22 -3.66 22 -4 22 C-3.85860519 19.74971671 -3.71171997 17.49977794 -3.5625 15.25 C-3.48128906 13.99703125 -3.40007812 12.7440625 -3.31640625 11.453125 C-3.07484478 8.81682447 -2.75716066 6.51962706 -2 4 C-1.34 4 -0.68 4 0 4 C0 2.68 0 1.36 0 0 Z " fill="#E27381" transform="translate(298,134)"/>
<path d="M0 0 C2.33512959 0.32050798 4.66822025 0.65596692 7 1 C7.928125 1.103125 8.85625 1.20625 9.8125 1.3125 C12 2 12 2 13.1875 4 C13.455625 4.66 13.72375 5.32 14 6 C14.66 6.33 15.32 6.66 16 7 C16 7.66 16 8.32 16 9 C10.0942118 7.44584521 5.02261107 4.40465533 0 1 C0 0.67 0 0.34 0 0 Z " fill="#B5CEE9" transform="translate(96,307)"/>
<path d="M0 0 C0.66 0.33 1.32 0.66 2 1 C-0.05828505 2.46460693 -2.12124544 3.921712 -4.1875 5.375 C-4.76564453 5.7875 -5.34378906 6.2 -5.93945312 6.625 C-9.18278051 8.89716155 -12.24892127 10.71431953 -16 12 C-16 11.01 -16 10.02 -16 9 C-14.35 8.67 -12.7 8.34 -11 8 C-10.814375 7.0409375 -10.814375 7.0409375 -10.625 6.0625 C-10.41875 5.381875 -10.2125 4.70125 -10 4 C-7.50907189 2.75453595 -6.58919267 3.2232422 -4 4 C-4 3.34 -4 2.68 -4 2 C-2.125 0.9375 -2.125 0.9375 0 0 Z " fill="#5E76AF" transform="translate(226,253)"/>
<path d="M0 0 C0.66 0 1.32 0 2 0 C2.67528223 1.57967807 3.33989694 3.16391903 4 4.75 C4.37125 5.63171875 4.7425 6.5134375 5.125 7.421875 C6 10 6 10 6 14 C6.66 14 7.32 14 8 14 C8.33 17.96 8.66 21.92 9 26 C8.34 26 7.68 26 7 26 C6.87044922 25.195625 6.87044922 25.195625 6.73828125 24.375 C5.24002776 16.01776954 2.61939374 8.05813494 0 0 Z " fill="#C07796" transform="translate(284,70)"/>
<path d="M0 0 C3.42931954 3.7559214 4.56429083 8.23466745 6 13 C3.69 12.01 1.38 11.02 -1 10 C-0.01 9.67 0.98 9.34 2 9 C0.36526484 5.87525373 0.36526484 5.87525373 -2.125 5.3125 C-2.74375 5.209375 -3.3625 5.10625 -4 5 C-2.25 1.125 -2.25 1.125 0 0 Z " fill="#8DBAE9" transform="translate(228,95)"/>
<path d="M0 0 C-1.3303125 0.5878125 -1.3303125 0.5878125 -2.6875 1.1875 C-6.12129608 3.06636955 -8.36541769 5.13295455 -11 8 C-11 7.01 -11 6.02 -11 5 C-14.0745356 5.7763932 -14.0745356 5.7763932 -16 8 C-16.33 7.01 -16.66 6.02 -17 5 C-16 3 -16 3 -13.1640625 1.89453125 C-11.99617187 1.53746094 -10.82828125 1.18039062 -9.625 0.8125 C-8.46226562 0.44769531 -7.29953125 0.08289063 -6.1015625 -0.29296875 C-3 -1 -3 -1 0 0 Z " fill="#AFADCF" transform="translate(182,281)"/>
<path d="M0 0 C1.65 0 3.3 0 5 0 C5.33 0.66 5.66 1.32 6 2 C3.12854755 3.01132916 0.25354777 4.00924402 -2.625 5 C-3.43324219 5.28617187 -4.24148437 5.57234375 -5.07421875 5.8671875 C-9.53114644 7.38906525 -13.22037472 8.37123303 -18 8 C-14.46588679 5.87953208 -11.05606165 5.46800711 -7 5 C-7 4.34 -7 3.68 -7 3 C-3.25 1.875 -3.25 1.875 -1 3 C-0.67 2.01 -0.34 1.02 0 0 Z " fill="#DFC7D4" transform="translate(212,315)"/>
<path d="M0 0 C0.33 0 0.66 0 1 0 C1 1.98 1 3.96 1 6 C0.34 6 -0.32 6 -1 6 C-1.825 6.99 -2.65 7.98 -3.5 9 C-4.325 9.99 -5.15 10.98 -6 12 C-6.66 12 -7.32 12 -8 12 C-8 8 -8 8 -6 6 C-4 4 -2 2 0 0 Z " fill="#D77E8E" transform="translate(277,272)"/>
<path d="M0 0 C4.01133215 0.60534649 7.0684076 1.8774394 10.625 3.8125 C11.56601563 4.31394531 12.50703125 4.81539063 13.4765625 5.33203125 C15.99447763 6.99634977 17.37432001 8.48510579 19 11 C18.01 11 17.02 11 16 11 C16 10.34 16 9.68 16 9 C14.68 9.33 13.36 9.66 12 10 C11.67 9.01 11.34 8.02 11 7 C10.67 6.34 10.34 5.68 10 5 C8.68 5 7.36 5 6 5 C6 4.34 6 3.68 6 3 C5.195625 2.87625 4.39125 2.7525 3.5625 2.625 C2.716875 2.41875 1.87125 2.2125 1 2 C0.67 1.34 0.34 0.68 0 0 Z M10 10 C12 11 12 11 12 11 Z " fill="#98C3EC" transform="translate(195,69)"/>
<path d="M0 0 C0.99 0.33 1.98 0.66 3 1 C3 1.66 3 2.32 3 3 C3.66 3.33 4.32 3.66 5 4 C3.75 6.5 3.75 6.5 2 9 C0.68 9 -0.64 9 -2 9 C-2.33 7.35 -2.66 5.7 -3 4 C-2.01 3.67 -1.02 3.34 0 3 C0 2.01 0 1.02 0 0 Z " fill="#77C1F1" transform="translate(80,282)"/>
<path d="M0 0 C2 1 2 1 3 3 C3.43244838 6.8920354 3.29425531 8.54880853 1.125 11.875 C0.42375 12.57625 -0.2775 13.2775 -1 14 C-1.66 14 -2.32 14 -3 14 C-2.48459954 10.2203966 -1.69179906 7.38359812 0 4 C0 2.68 0 1.36 0 0 Z " fill="#EB8C96" transform="translate(305,234)"/>
<path d="M0 0 C0 4.07907331 -1.56697866 5.05743168 -4.3125 8 C-5.11300781 8.86625 -5.91351563 9.7325 -6.73828125 10.625 C-8.46946687 12.44289439 -10.21073329 14.23968582 -12 16 C-12 14.35 -12 12.7 -12 11 C-11.01 11 -10.02 11 -9 11 C-9 9.68 -9 8.36 -9 7 C-8.01 7 -7.02 7 -6 7 C-6 6.01 -6 5.02 -6 4 C-3.5625 2.375 -3.5625 2.375 -1 1 C-0.67 0.67 -0.34 0.34 0 0 Z " fill="#B2D6DF" transform="translate(131,131)"/>
<path d="M0 0 C4 4.625 4 4.625 4 8 C6.97 8.495 6.97 8.495 10 9 C10 9.33 10 9.66 10 10 C7.69 10 5.38 10 3 10 C3 9.01 3 8.02 3 7 C2.236875 6.896875 1.47375 6.79375 0.6875 6.6875 C-2.17059424 5.95635961 -3.15742885 5.23048087 -5 3 C-2 3 -2 3 0 4 C0 2.68 0 1.36 0 0 Z " fill="#88B6D0" transform="translate(103,219)"/>
<path d="M0 0 C1.34538868 2.69077736 0.74352138 4.08532392 0.125 7 C-0.05804688 7.886875 -0.24109375 8.77375 -0.4296875 9.6875 C-1 12 -1 12 -2 14 C-2.66 14 -3.32 14 -4 14 C-4.89034986 11.50702038 -5.21044954 10.44895901 -4.0625 8 C-3.711875 7.34 -3.36125 6.68 -3 6 C-3 4.68 -3 3.36 -3 2 C-2.01 1.34 -1.02 0.68 0 0 Z " fill="#EB717D" transform="translate(323,201)"/>
<path d="M0 0 C0.66 0.33 1.32 0.66 2 1 C2.85486376 5.66289322 3.30042194 9.37627754 2 14 C1.01 13.67 0.02 13.34 -1 13 C-1.02696365 11.20841511 -1.04637917 9.41671527 -1.0625 7.625 C-1.07410156 6.62726563 -1.08570313 5.62953125 -1.09765625 4.6015625 C-1 2 -1 2 0 0 Z " fill="#E87180" transform="translate(297,98)"/>
<path d="M0 0 C1.65 0 3.3 0 5 0 C5.268125 0.639375 5.53625 1.27875 5.8125 1.9375 C6.88667752 4.33131686 6.88667752 4.33131686 10 5 C11.6875 7.5625 11.6875 7.5625 13 10 C9.93124691 8.5360077 7.09565257 6.85990364 4.25 5 C3.45078125 4.484375 2.6515625 3.96875 1.828125 3.4375 C0.92320313 2.7259375 0.92320313 2.7259375 0 2 C0 1.34 0 0.68 0 0 Z " fill="#B2D5EB" transform="translate(83,297)"/>
<path d="M0 0 C-2.70879335 1.35439668 -5.00933268 1.06501451 -8 1 C-8.66 2.32 -9.32 3.64 -10 5 C-13.3 5 -16.6 5 -20 5 C-16.85418354 2.90278902 -14.1591082 1.94332914 -10.5625 0.8125 C-9.42941406 0.44769531 -8.29632813 0.08289063 -7.12890625 -0.29296875 C-4.1660003 -0.96248932 -2.77995035 -1.07236414 0 0 Z " fill="#99ABD1" transform="translate(143,12)"/>
<path d="M0 0 C0 3.63306931 -1.07932067 4.97123644 -3 8 C-3.4021875 9.11375 -3.4021875 9.11375 -3.8125 10.25 C-5 12 -5 12 -8.125 12.75 C-9.548125 12.87375 -9.548125 12.87375 -11 13 C-7.61227103 8.30840284 -4.21814817 3.9700218 0 0 Z " fill="#C794B1" transform="translate(258,224)"/>
<path d="M0 0 C-0.598125 0.268125 -1.19625 0.53625 -1.8125 0.8125 C-4.73959515 2.40149451 -6.5094781 4.01895619 -8 7 C-8.66 6.67 -9.32 6.34 -10 6 C-12.9254644 5.7763932 -12.9254644 5.7763932 -15 7 C-15 5.68 -15 4.36 -15 3 C-13.44033782 2.491217 -11.87710759 1.99336531 -10.3125 1.5 C-9.44238281 1.2215625 -8.57226562 0.943125 -7.67578125 0.65625 C-5.00608323 0.00149195 -2.73603316 -0.11831495 0 0 Z " fill="#92C7E3" transform="translate(154,65)"/>
<path d="M0 0 C0.33 0 0.66 0 1 0 C0.39297368 6.6772895 -1.77631394 12.70127996 -4 19 C-5.14533956 15.56398131 -4.80786656 13.95005331 -4.125 10.4375 C-3.85042969 8.98150391 -3.85042969 8.98150391 -3.5703125 7.49609375 C-3 5 -3 5 -2 3 C-1.34 3 -0.68 3 0 3 C0 2.01 0 1.02 0 0 Z " fill="#F2BDBE" transform="translate(327,194)"/>
<path d="M0 0 C4.62 0 9.24 0 14 0 C12 2 12 2 9.6171875 2.1953125 C8.71226562 2.17210938 7.80734375 2.14890625 6.875 2.125 C5.50988281 2.09792969 5.50988281 2.09792969 4.1171875 2.0703125 C3.41851562 2.04710938 2.71984375 2.02390625 2 2 C1.67 2.99 1.34 3.98 1 5 C-0.65 5.33 -2.3 5.66 -4 6 C-4 5.01 -4 4.02 -4 3 C-2.68 2.67 -1.36 2.34 0 2 C0 1.34 0 0.68 0 0 Z " fill="#90BFD6" transform="translate(177,99)"/>
<path d="M0 0 C-1.32 0.33 -2.64 0.66 -4 1 C-4 1.99 -4 2.98 -4 4 C-4.78375 4.28875 -5.5675 4.5775 -6.375 4.875 C-9.09671632 5.84912254 -9.09671632 5.84912254 -11 8 C-13 7.33333333 -15 6.66666667 -17 6 C-14.73495035 4.80015203 -12.46410112 3.61505231 -10.1875 2.4375 C-9.54490234 2.09525391 -8.90230469 1.75300781 -8.24023438 1.40039062 C-3.33984375 -1.11328125 -3.33984375 -1.11328125 0 0 Z " fill="#B9A8CA" transform="translate(206,270)"/>
<path d="M0 0 C0.66 0.33 1.32 0.66 2 1 C-0.96852125 6.22459741 -3.62704618 8.31352309 -9 11 C-9 9.68 -9 8.36 -9 7 C-7.68 6.34 -6.36 5.68 -5 5 C-5 4.34 -5 3.68 -5 3 C-2.625 1.3125 -2.625 1.3125 0 0 Z " fill="#95C4D5" transform="translate(152,111)"/>
<path d="M0 0 C0.66 0.33 1.32 0.66 2 1 C2.25 3.25 2.25 3.25 2 6 C0.125 8.3125 0.125 8.3125 -2 10 C-2.66 10 -3.32 10 -4 10 C-4.41176754 6.39703406 -4.1535853 5.21597933 -2 2.1875 C-1.34 1.465625 -0.68 0.74375 0 0 Z " fill="#DF7782" transform="translate(289,258)"/>
<path d="M0 0 C0.99 0 1.98 0 3 0 C2.64766839 5.4611399 2.64766839 5.4611399 2 8 C-0.0625 9.5 -0.0625 9.5 -2 10 C-2.25 3.375 -2.25 3.375 0 0 Z " fill="#5E73B6" transform="translate(289,154)"/>
<path d="M0 0 C0.66 0.33 1.32 0.66 2 1 C1.360625 1.103125 0.72125 1.20625 0.0625 1.3125 C-0.618125 1.539375 -1.29875 1.76625 -2 2 C-2.33 2.99 -2.66 3.98 -3 5 C-4.918125 5.12375 -4.918125 5.12375 -6.875 5.25 C-9.05333418 5.45869931 -9.05333418 5.45869931 -11 6 C-12.5899433 7.92064793 -12.5899433 7.92064793 -13 10 C-13 9.34 -13 8.68 -13 8 C-13.66 7.67 -14.32 7.34 -15 7 C-13.06374902 6.01836578 -11.12595461 5.03977546 -9.1875 4.0625 C-8.10855469 3.51722656 -7.02960938 2.97195312 -5.91796875 2.41015625 C-3 1 -3 1 0 0 Z " fill="#94C6E4" transform="translate(136,69)"/>
<path d="M0 0 C1.32 0.33 2.64 0.66 4 1 C1.69 4.63 -0.62 8.26 -3 12 C-4.6415049 8.7169902 -3.51888624 5.57454967 -3 2 C-2.01 2.33 -1.02 2.66 0 3 C0 2.01 0 1.02 0 0 Z " fill="#6273B0" transform="translate(273,196)"/>
<path d="M0 0 C0.99 0.33 1.98 0.66 3 1 C2.75 4.3125 2.75 4.3125 2 8 C0.68 8.99 -0.64 9.98 -2 11 C-1.34 7.37 -0.68 3.74 0 0 Z " fill="#77C6C7" transform="translate(72,137)"/>
<path d="M0 0 C0.33 0.66 0.66 1.32 1 2 C1.66 2.33 2.32 2.66 3 3 C1.02 5.64 -0.96 8.28 -3 11 C-4 7 -4 7 -4 4 C-2.68 3.34 -1.36 2.68 0 2 C0 1.34 0 0.68 0 0 Z " fill="#5D76B4" transform="translate(262,213)"/>
<path d="M0 0 C0.33 0 0.66 0 1 0 C1 7.26 1 14.52 1 22 C0.67 22 0.34 22 0 22 C-0.33 17.38 -0.66 12.76 -1 8 C-1.66 8 -2.32 8 -3 8 C-2.37240135 5.07120629 -1.41377341 2.63904371 0 0 Z " fill="#E96B6F" transform="translate(330,146)"/>
<path d="M0 0 C6.52670623 2.21661721 6.52670623 2.21661721 8.8125 6 C9.204375 6.99 9.59625 7.98 10 9 C10.99 10.485 10.99 10.485 12 12 C8.60140297 10.53033642 6.35036291 8.61962486 3.75 6 C3.04359375 5.29875 2.3371875 4.5975 1.609375 3.875 C0 2 0 2 0 0 Z " fill="#C7E7F9" transform="translate(71,285)"/>
<path d="M0 0 C0.66 0 1.32 0 2 0 C2 3.87180591 1.72592217 5.63445177 0 9 C-2.125 10.8125 -2.125 10.8125 -4 12 C-3.33501617 7.61110675 -1.81242323 4.0188515 0 0 Z " fill="#E17781" transform="translate(290,169)"/>
<path d="M0 0 C-2.03819846 2.03819846 -3.29417798 2.67841059 -5.9375 3.6875 C-6.62714844 3.95949219 -7.31679687 4.23148437 -8.02734375 4.51171875 C-10 5 -10 5 -13 4 C-13.33 3.34 -13.66 2.68 -14 2 C-9.07262981 0.02905192 -5.21979128 -0.1799928 0 0 Z " fill="#BFE0EA" transform="translate(175,105)"/>
<path d="M0 0 C1.32 0 2.64 0 4 0 C5.32229189 2.64458379 5.09677194 4.67761301 5.0625 7.625 C5.05347656 8.62789062 5.04445312 9.63078125 5.03515625 10.6640625 C5.02355469 11.43492188 5.01195312 12.20578125 5 13 C2.53698577 10.53698577 2.23233479 8.72639964 1.375 5.375 C1.11460937 4.37210937 0.85421875 3.36921875 0.5859375 2.3359375 C0.39257812 1.56507812 0.19921875 0.79421875 0 0 Z " fill="#7390C2" transform="translate(231,100)"/>
<path d="M0 0 C1.32 0.33 2.64 0.66 4 1 C1.6163187 5.34170523 -0.78119883 9.2064129 -4 13 C-4.66 12.67 -5.32 12.34 -6 12 C-5.195625 11.13375 -4.39125 10.2675 -3.5625 9.375 C-1.03075864 6.37123907 -0.28342624 3.96796738 0 0 Z " fill="#F1B9C0" transform="translate(291,258)"/>
<path d="M0 0 C1.46841427 2.93682854 0.76696084 4.86824322 0 8 C-1.375 9.875 -1.375 9.875 -3 11 C-3.99 11 -4.98 11 -6 11 C-4.54955729 6.89041233 -2.48889248 3.56741255 0 0 Z " fill="#C58AAA" transform="translate(275,199)"/>
<path d="M0 0 C0 1.65 0 3.3 0 5 C0.66 5.33 1.32 5.66 2 6 C0.68 7.32 -0.64 8.64 -2 10 C-3.25664978 7.09399739 -4 5.20395416 -4 2 C-1 0 -1 0 0 0 Z " fill="#5E73B1" transform="translate(267,204)"/>
<path d="M0 0 C0.99386719 0.00902344 1.98773438 0.01804687 3.01171875 0.02734375 C4.15060547 0.04474609 4.15060547 0.04474609 5.3125 0.0625 C5.3125 0.7225 5.3125 1.3825 5.3125 2.0625 C3.73120971 2.28581199 2.14728911 2.49054644 0.5625 2.6875 C-0.76007813 2.86152344 -0.76007813 2.86152344 -2.109375 3.0390625 C-4.91609878 3.06457817 -6.32134866 2.51093844 -8.6875 1.0625 C-5.53819107 0.01273036 -3.29935544 -0.03881595 0 0 Z " fill="#889CC4" transform="translate(151.6875,8.9375)"/>
<path d="M0 0 C1.32 0.33 2.64 0.66 4 1 C4 2.32 4 3.64 4 5 C-3.75 4.25 -3.75 4.25 -6 2 C-4.02 2 -2.04 2 0 2 C0 1.34 0 0.68 0 0 Z " fill="#97B1DB" transform="translate(125,314)"/>
<path d="M0 0 C-2.54605302 2.00047023 -4.9664636 3.82572785 -8 5 C-8.99 4.67 -9.98 4.34 -11 4 C-10.67 3.01 -10.34 2.02 -10 1 C-6.78548731 -0.60725635 -3.56387464 -0.05748185 0 0 Z " fill="#DFBECA" transform="translate(234,309)"/>
<path d="M0 0 C0.763125 0.20625 1.52625 0.4125 2.3125 0.625 C1.02284824 2.00062854 -0.31439293 3.33266393 -1.6875 4.625 C-2.3475 4.625 -3.0075 4.625 -3.6875 4.625 C-3.6875 5.285 -3.6875 5.945 -3.6875 6.625 C-4.3475 6.295 -5.0075 5.965 -5.6875 5.625 C-5.6875 4.305 -5.6875 2.985 -5.6875 1.625 C-2.6875 -0.375 -2.6875 -0.375 0 0 Z " fill="#E29DAB" transform="translate(262.6875,288.375)"/>
<path d="M0 0 C-1.93370231 1.00732399 -3.87210306 2.00563288 -5.8125 3 C-7.43091797 3.8353125 -7.43091797 3.8353125 -9.08203125 4.6875 C-12 6 -12 6 -15 6 C-15 5.34 -15 4.68 -15 4 C-11.535 3.505 -11.535 3.505 -8 3 C-8 2.34 -8 1.68 -8 1 C-2.25 -1.125 -2.25 -1.125 0 0 Z " fill="#627AB0" transform="translate(201,271)"/>
<path d="M0 0 C3.96 0 7.92 0 12 0 C9.13771795 1.43114103 7.00359672 2.40726882 4 3.1875 C3.34 3.36667969 2.68 3.54585938 2 3.73046875 C-0.26540976 4.03576811 -1.835092 3.68136613 -4 3 C-3.01 2.67 -2.02 2.34 -1 2 C-0.67 1.34 -0.34 0.68 0 0 Z " fill="#CDE5EF" transform="translate(179,101)"/>
<path d="M0 0 C-0.33 0.99 -0.66 1.98 -1 3 C-3.43359375 4.203125 -3.43359375 4.203125 -6.4375 5.25 C-7.92056641 5.78367187 -7.92056641 5.78367187 -9.43359375 6.328125 C-12 7 -12 7 -14 6 C-12.42356682 4.98915735 -10.8385483 3.99169489 -9.25 3 C-8.36828125 2.443125 -7.4865625 1.88625 -6.578125 1.3125 C-4 0 -4 0 0 0 Z " fill="#B9C8DF" transform="translate(108,24)"/>
<path d="M0 0 C1.07033136 3.21822604 0.95795392 5.03142433 -0.25 8.1875 C-0.62898437 9.22970703 -0.62898437 9.22970703 -1.015625 10.29296875 C-2 12 -2 12 -5 13 C-3.78184562 8.31479085 -2.30440013 4.29456388 0 0 Z " fill="#A1B1D4" transform="translate(233,162)"/>
<path d="M0 0 C0.33 1.32 0.66 2.64 1 4 C0.34 4 -0.32 4 -1 4 C-0.938125 5.2375 -0.87625 6.475 -0.8125 7.75 C-0.79637174 10.78211302 -0.89348977 11.82248296 -2.5 14.5 C-2.995 14.995 -3.49 15.49 -4 16 C-3.855625 15.195625 -3.71125 14.39125 -3.5625 13.5625 C-2.99919784 9.99491963 -2.66222187 6.45417992 -2.37890625 2.85546875 C-2.25386719 2.24316406 -2.12882812 1.63085938 -2 1 C-1.34 0.67 -0.68 0.34 0 0 Z " fill="#A27DA6" transform="translate(290,162)"/>
<path d="M0 0 C2.51954654 2.25890379 3.87332733 4.417897 5.25 7.5 C5.60578125 8.2734375 5.9615625 9.046875 6.328125 9.84375 C7 12 7 12 6 15 C2.76102323 12.41426224 2.20698065 9.77377144 1.3125 5.8125 C1.06113281 4.72582031 0.80976563 3.63914062 0.55078125 2.51953125 C0.36902344 1.68808594 0.18726563 0.85664062 0 0 Z " fill="#F5BDC3" transform="translate(317,101)"/>
<path d="M0 0 C0.66 0.99 1.32 1.98 2 3 C1.67 3.66 1.34 4.32 1 5 C0.01 5 -0.98 5 -2 5 C-2 6.32 -2 7.64 -2 9 C-2.66 9 -3.32 9 -4 9 C-4 9.99 -4 10.98 -4 12 C-4.66 12 -5.32 12 -6 12 C-4.68139111 7.38486888 -2.78644563 3.90102388 0 0 Z " fill="#B3C3DC" transform="translate(33,90)"/>
<path d="M0 0 C0.99 0.33 1.98 0.66 3 1 C0.66666667 3.33333333 -1.66666667 5.66666667 -4 8 C-4.99 7.67 -5.98 7.34 -7 7 C-6.67 6.34 -6.34 5.68 -6 5 C-5.34 5 -4.68 5 -4 5 C-3.71125 4.360625 -3.4225 3.72125 -3.125 3.0625 C-2 1 -2 1 0 0 Z " fill="#BF92AE" transform="translate(214,264)"/>
<path d="M0 0 C0 0.99 0 1.98 0 3 C-8.42857143 4.28571429 -8.42857143 4.28571429 -13 3 C-13 2.67 -13 2.34 -13 2 C-11.58461283 1.66127487 -10.16762037 1.32925376 -8.75 1 C-7.56664062 0.7215625 -7.56664062 0.7215625 -6.359375 0.4375 C-4 0 -4 0 0 0 Z " fill="#9EB1D0" transform="translate(163,229)"/>
<path d="M0 0 C0.66 1.32 1.32 2.64 2 4 C1.01 4 0.02 4 -1 4 C-1.2475 4.639375 -1.495 5.27875 -1.75 5.9375 C-3 8 -3 8 -5.078125 8.62890625 C-6.02945313 8.81259766 -6.02945313 8.81259766 -7 9 C-6.02180976 7.68677212 -5.0424189 6.37443848 -4.0625 5.0625 C-3.51722656 4.33160156 -2.97195312 3.60070312 -2.41015625 2.84765625 C-1 1 -1 1 0 0 Z " fill="#8194BF" transform="translate(212,197)"/>
<path d="M0 0 C0.66 1.32 1.32 2.64 2 4 C0.125 5.0625 0.125 5.0625 -2 6 C-2.66 5.67 -3.32 5.34 -4 5 C-3.6875 3.0625 -3.6875 3.0625 -3 1 C-2.01 0.67 -1.02 0.34 0 0 Z " fill="#D68090" transform="translate(265,283)"/>
<path d="M0 0 C1.4391134 0.28359887 2.87625518 0.57721399 4.3125 0.875 C5.11300781 1.03742188 5.91351563 1.19984375 6.73828125 1.3671875 C9 2 9 2 12 4 C10.741875 4.020625 9.48375 4.04125 8.1875 4.0625 C7.47980469 4.07410156 6.77210937 4.08570313 6.04296875 4.09765625 C4 4 4 4 1 3 C0.67 2.01 0.34 1.02 0 0 Z " fill="#93C5F4" transform="translate(82,282)"/>
<path d="M0 0 C0.99 0.33 1.98 0.66 3 1 C3.33 1.99 3.66 2.98 4 4 C2.35 5.32 0.7 6.64 -1 8 C-1.125 2.25 -1.125 2.25 0 0 Z " fill="#E596A1" transform="translate(279,270)"/>
<path d="M0 0 C4.51478398 0.53115106 7.34666857 2.36620292 11 5 C10.67 5.66 10.34 6.32 10 7 C8.27473958 5.95833333 6.54947917 4.91666667 4.82421875 3.875 C2.88638074 2.78376001 2.88638074 2.78376001 0 3 C0 2.01 0 1.02 0 0 Z " fill="#477AB4" transform="translate(93,221)"/>
<path d="M0 0 C0.33 0 0.66 0 1 0 C1.3682455 7.48765844 1.3682455 7.48765844 -0.4375 10 C-2 11 -2 11 -3 11 C-3 9.35 -3 7.7 -3 6 C-2.01 5.67 -1.02 5.34 0 5 C0 3.35 0 1.7 0 0 Z " fill="#DC7988" transform="translate(283,185)"/>
<path d="M0 0 C0 3.86695678 -1.41909971 6.5088452 -3 10 C-3.66 10 -4.32 10 -5 10 C-4.64766839 4.5388601 -4.64766839 4.5388601 -4 2 C-1.9375 0.5 -1.9375 0.5 0 0 Z " fill="#B9DCE4" transform="translate(118,147)"/>
<path d="M0 0 C1.32 0 2.64 0 4 0 C2.50902342 3.7952131 0.24299151 5.61042731 -3 8 C-2.37240135 5.07120629 -1.41377341 2.63904371 0 0 Z " fill="#76C4CB" transform="translate(87,106)"/>
<path d="M0 0 C0.98120464 3.05263664 0.98120464 4.94736336 0 8 C-1.65 8.33 -3.3 8.66 -5 9 C-3.7508258 5.54074837 -2.32472205 2.85306797 0 0 Z " fill="#A2B5D9" transform="translate(39,81)"/>
<path d="M0 0 C4.11979807 1.37326602 7.04297546 4.08595092 9 8 C7.35 7.67 5.7 7.34 4 7 C4 6.34 4 5.68 4 5 C3.01 5 2.02 5 1 5 C0.67 3.35 0.34 1.7 0 0 Z " fill="#E96F7B" transform="translate(301,83)"/>
<path d="M0 0 C0.66 0 1.32 0 2 0 C2 0.66 2 1.32 2 2 C2.66 2 3.32 2 4 2 C5.38938077 3.96147874 6.7260411 5.96166576 8 8 C6.35 7.67 4.7 7.34 3 7 C3 6.34 3 5.68 3 5 C2.34 5 1.68 5 1 5 C0.67 3.35 0.34 1.7 0 0 Z " fill="#EAB2B4" transform="translate(296,74)"/>
<path d="M0 0 C-0.33 0.99 -0.66 1.98 -1 3 C-1.9075 3.12375 -2.815 3.2475 -3.75 3.375 C-6.58970323 3.92109677 -8.52590591 4.57263803 -11 6 C-9.89210592 2.67631776 -9.51563783 2.38436907 -6.625 0.75 C-6.01914063 0.39421875 -5.41328125 0.0384375 -4.7890625 -0.328125 C-3 -1 -3 -1 0 0 Z " fill="#92C5E5" transform="translate(122,78)"/>
<path d="M0 0 C0.66 0.33 1.32 0.66 2 1 C-1.82180842 5.4008703 -4.47371099 6.80805531 -10 8 C-6.97727468 4.74475735 -3.74281699 2.38179263 0 0 Z " fill="#B7C9E2" transform="translate(92,31)"/>
<path d="M0 0 C0.66 0.99 1.32 1.98 2 3 C1.01 4.32 0.02 5.64 -1 7 C-1.66 6.67 -2.32 6.34 -3 6 C-3.625 3.9375 -3.625 3.9375 -4 2 C-2.68 1.34 -1.36 0.68 0 0 Z " fill="#4776C0" transform="translate(232,242)"/>
<path d="M0 0 C0.33 1.32 0.66 2.64 1 4 C-1.64 5.98 -4.28 7.96 -7 10 C-5 6 -5 6 -3 3 C-2.34 3 -1.68 3 -1 3 C-0.67 2.01 -0.34 1.02 0 0 Z " fill="#ABBBDA" transform="translate(220,187)"/>
<path d="M0 0 C0.33 0.66 0.66 1.32 1 2 C0.00390625 4.6015625 0.00390625 4.6015625 -1.4375 7.625 C-1.91058594 8.62789062 -2.38367188 9.63078125 -2.87109375 10.6640625 C-3.24363281 11.43492187 -3.61617188 12.20578125 -4 13 C-4.33 13 -4.66 13 -5 13 C-5 10.69 -5 8.38 -5 6 C-4.34 6 -3.68 6 -3 6 C-2.01 4.02 -1.02 2.04 0 0 Z " fill="#6873AD" transform="translate(283,180)"/>
<path d="M0 0 C0.33 0 0.66 0 1 0 C0.67 3.3 0.34 6.6 0 10 C-0.99 10.33 -1.98 10.66 -3 11 C-2.69217504 9.35328588 -2.37860766 7.70764424 -2.0625 6.0625 C-1.88847656 5.14597656 -1.71445313 4.22945312 -1.53515625 3.28515625 C-1 1 -1 1 0 0 Z " fill="#8B9CC5" transform="translate(237,150)"/>
<path d="M0 0 C1.65 0 3.3 0 5 0 C2.14723863 2.93200474 -0.65079784 5.64315404 -4 8 C-3.34 6.02 -2.68 4.04 -2 2 C-1.34 2 -0.68 2 0 2 C0 1.34 0 0.68 0 0 Z " fill="#BEDDE6" transform="translate(138,122)"/>
<path d="M0 0 C0.99 0.33 1.98 0.66 3 1 C-1.625 5.875 -1.625 5.875 -5 7 C-5 6.34 -5 5.68 -5 5 C-4.34 5 -3.68 5 -3 5 C-2.87625 4.360625 -2.7525 3.72125 -2.625 3.0625 C-2.41875 2.381875 -2.2125 1.70125 -2 1 C-1.34 0.67 -0.68 0.34 0 0 Z " fill="#4C79AE" transform="translate(106,82)"/>
<path d="M0 0 C-3.63 1.32 -7.26 2.64 -11 4 C-10.67 3.01 -10.34 2.02 -10 1 C-5.93722605 -0.80567731 -4.41147506 -1.10286876 0 0 Z " fill="#6476B1" transform="translate(186,278)"/>
<path d="M0 0 C0 1.98 0 3.96 0 6 C-1.32 6.33 -2.64 6.66 -4 7 C-4 3 -4 3 -2.5625 1.25 C-1 0 -1 0 0 0 Z " fill="#E17A87" transform="translate(278,272)"/>
<path d="M0 0 C3.63 0 7.26 0 11 0 C11.33 0.99 11.66 1.98 12 3 C6.06 2.01 6.06 2.01 0 1 C0 0.67 0 0.34 0 0 Z " fill="#D0E5F1" transform="translate(215,101)"/>
<path d="M0 0 C1.5 1.375 1.5 1.375 3 3 C3 3.66 3 4.32 3 5 C3.66 5 4.32 5 5 5 C4.67 6.32 4.34 7.64 4 9 C4 8.34 4 7.68 4 7 C2.68 6.67 1.36 6.34 0 6 C0 4.02 0 2.04 0 0 Z " fill="#7A74A8" transform="translate(278,61)"/>
<path d="M0 0 C0.66 0 1.32 0 2 0 C2 0.66 2 1.32 2 2 C2.66 2 3.32 2 4 2 C5.625 4 5.625 4 7 6 C6.67 6.66 6.34 7.32 6 8 C3.69 6.35 1.38 4.7 -1 3 C-0.67 2.01 -0.34 1.02 0 0 Z " fill="#A4B6D5" transform="translate(266,44)"/>
<path d="M0 0 C5.75 1.75 5.75 1.75 8 4 C7.67 4.99 7.34 5.98 7 7 C5.83040013 6.02433888 4.66438823 5.044375 3.5 4.0625 C2.8503125 3.51722656 2.200625 2.97195313 1.53125 2.41015625 C1.0259375 1.94480469 0.520625 1.47945313 0 1 C0 0.67 0 0.34 0 0 Z " fill="#A6B7D6" transform="translate(45,259)"/>
<path d="M0 0 C0.66 0.99 1.32 1.98 2 3 C1.34 3 0.68 3 0 3 C0 5.31 0 7.62 0 10 C-0.99 10.33 -1.98 10.66 -3 11 C-2.44894091 7.0507432 -1.61064629 3.65079826 0 0 Z " fill="#A3B4D8" transform="translate(20,115)"/>
<path d="M0 0 C-1.75 2.0625 -1.75 2.0625 -4 4 C-6.25 3.75 -6.25 3.75 -8 3 C-8 2.34 -8 1.68 -8 1 C-3.375 -1.125 -3.375 -1.125 0 0 Z " fill="#AE9DBA" transform="translate(185,281)"/>
<path d="M0 0 C0 3.90838866 -1.50567876 5.11594107 -4 8 C-4.33 6.02 -4.66 4.04 -5 2 C-3.35 1.34 -1.7 0.68 0 0 Z " fill="#EEAAAE" transform="translate(312,233)"/>
<path d="M0 0 C0.66 0 1.32 0 2 0 C0.50902342 3.7952131 -1.75700849 5.61042731 -5 8 C-5 7.01 -5 6.02 -5 5 C-4.34 5 -3.68 5 -3 5 C-2.5359375 4.0409375 -2.5359375 4.0409375 -2.0625 3.0625 C-1 1 -1 1 0 0 Z " fill="#6E74AA" transform="translate(251,229)"/>
<path d="M0 0 C0.66 0 1.32 0 2 0 C2 0.66 2 1.32 2 2 C2.99 2.33 3.98 2.66 5 3 C4.67 4.65 4.34 6.3 4 8 C1.84622436 5.37801226 0.59927826 3.35595828 0 0 Z " fill="#90A3CC" transform="translate(20,224)"/>
<path d="M0 0 C0.66 0.99 1.32 1.98 2 3 C0.35 4.65 -1.3 6.3 -3 8 C-3 4.42424104 -1.91159393 2.94704065 0 0 Z " fill="#98AACD" transform="translate(225,179)"/>
<path d="M0 0 C0.99 0.33 1.98 0.66 3 1 C3 4.63 3 8.26 3 12 C2.67 12 2.34 12 2 12 C2 9.36 2 6.72 2 4 C1.34 4 0.68 4 0 4 C0 2.68 0 1.36 0 0 Z " fill="#C5758E" transform="translate(293,98)"/>
<path d="M0 0 C0.99 0 1.98 0 3 0 C1.75023244 3.65316671 1.32901247 4.78065836 -2 7 C-2.125 4.625 -2.125 4.625 -2 2 C-1.34 1.34 -0.68 0.68 0 0 Z " fill="#4D7BAF" transform="translate(88,99)"/>
<path d="M0 0 C-2 2 -2 2 -4.3828125 2.1953125 C-5.28773438 2.17210937 -6.19265625 2.14890625 -7.125 2.125 C-8.49011719 2.09792969 -8.49011719 2.09792969 -9.8828125 2.0703125 C-10.58148438 2.04710937 -11.28015625 2.02390625 -12 2 C-12 1.67 -12 1.34 -12 1 C-3.96428571 -1.27678571 -3.96428571 -1.27678571 0 0 Z " fill="#5876AC" transform="translate(147,12)"/>
<path d="M0 0 C2.97 0.495 2.97 0.495 6 1 C6.33 1.99 6.66 2.98 7 4 C4.625 3.6875 4.625 3.6875 2 3 C1.34 2.01 0.68 1.02 0 0 Z " fill="#8DBAE3" transform="translate(93,303)"/>
<path d="M0 0 C0.33 0.66 0.66 1.32 1 2 C0.67 2.99 0.34 3.98 0 5 C-3.0625 6.1875 -3.0625 6.1875 -6 7 C-2.25 1.125 -2.25 1.125 0 0 Z " fill="#DC7F90" transform="translate(259,227)"/>
<path d="M0 0 C1 2 1 2 0.0625 5.125 C-0.288125 6.07375 -0.63875 7.0225 -1 8 C-1.99 7.01 -2.98 6.02 -4 5 C-2.25 1.125 -2.25 1.125 0 0 Z " fill="#F46770" transform="translate(323,201)"/>
<path d="M0 0 C0.33 0.99 0.66 1.98 1 3 C1.66 3 2.32 3 3 3 C3.625 5.3125 3.625 5.3125 4 8 C3.01 9.485 3.01 9.485 2 11 C0.80712589 7.12315913 0 4.08378077 0 0 Z " fill="#A0B5D8" transform="translate(11,196)"/>
<path d="M0 0 C-5.75 4 -5.75 4 -8 4 C-8 3.01 -8 2.02 -8 1 C-3.375 -1.125 -3.375 -1.125 0 0 Z " fill="#547DB1" transform="translate(122,76)"/>
<path d="M0 0 C0 3 0 3 -1.3125 4.38671875 C-2.875 5.59114583 -4.4375 6.79557292 -6 8 C-6 6.68 -6 5.36 -6 4 C-3.5625 2.3125 -3.5625 2.3125 -1 1 C-0.67 0.67 -0.34 0.34 0 0 Z " fill="#CAE6EA" transform="translate(131,131)"/>
<path d="M0 0 C0.99 0.66 1.98 1.32 3 2 C0.69 3.32 -1.62 4.64 -4 6 C-4 4.68 -4 3.36 -4 2 C-2.68 1.34 -1.36 0.68 0 0 Z " fill="#B4D7E2" transform="translate(147,116)"/>
<path d="M0 0 C0.99 0.33 1.98 0.66 3 1 C3.33 2.65 3.66 4.3 4 6 C1.69 5.01 -0.62 4.02 -3 3 C-2.01 2.67 -1.02 2.34 0 2 C0 1.34 0 0.68 0 0 Z " fill="#C5DDF2" transform="translate(230,102)"/>
<path d="" fill="#FFFFFF" transform="translate(0,0)"/>
<path d="" fill="#FFFFFF" transform="translate(0,0)"/>
<path d="" fill="#FFFFFF" transform="translate(0,0)"/>
<path d="" fill="#FFFFFF" transform="translate(0,0)"/>
<path d="" fill="#FFFFFF" transform="translate(0,0)"/>
<path d="" fill="#FFFFFF" transform="translate(0,0)"/>
<path d="" fill="#FFFFFF" transform="translate(0,0)"/>
<path d="" fill="#FFFFFF" transform="translate(0,0)"/>
<path d="" fill="#FFFFFF" transform="translate(0,0)"/>
<path d="" fill="#FFFFFF" transform="translate(0,0)"/>
<path d="" fill="#FFFFFF" transform="translate(0,0)"/>
<path d="" fill="#FFFFFF" transform="translate(0,0)"/>
<path d="" fill="#FFFFFF" transform="translate(0,0)"/>
<path d="" fill="#FFFFFF" transform="translate(0,0)"/>
<path d="" fill="#FFFFFF" transform="translate(0,0)"/>
<path d="" fill="#FFFFFF" transform="translate(0,0)"/>
<path d="" fill="#FFFFFF" transform="translate(0,0)"/>
<path d="" fill="#FFFFFF" transform="translate(0,0)"/>
<path d="" fill="#FFFFFF" transform="translate(0,0)"/>
<path d="" fill="#FFFFFF" transform="translate(0,0)"/>
<path d="" fill="#FFFFFF" transform="translate(0,0)"/>
<path d="" fill="#FFFFFF" transform="translate(0,0)"/>
<path d="" fill="#FFFFFF" transform="translate(0,0)"/>
</svg>
